<?xml version="1.0" encoding="UTF-8" standalone="no"?>
<!-- Created with Inkscape (http://www.inkscape.org/) -->

<svg
   xmlns:dc="http://purl.org/dc/elements/1.1/"
   xmlns:cc="http://creativecommons.org/ns#"
   xmlns:rdf="http://www.w3.org/1999/02/22-rdf-syntax-ns#"
   xmlns:svg="http://www.w3.org/2000/svg"
   xmlns="http://www.w3.org/2000/svg"
   xmlns:sodipodi="http://sodipodi.sourceforge.net/DTD/sodipodi-0.dtd"
   xmlns:inkscape="http://www.inkscape.org/namespaces/inkscape"
   width="210mm"
   height="297mm"
   id="svg2"
   version="1.1"
   inkscape:version="0.48.4 r9939"
   sodipodi:docname="belgosstrakh.svg">
  <defs
     id="defs4" />
  <sodipodi:namedview
     id="base"
     pagecolor="#ffffff"
     bordercolor="#666666"
     borderopacity="1.0"
     inkscape:pageopacity="0.0"
     inkscape:pageshadow="2"
     inkscape:zoom="1.0489002"
     inkscape:cx="369.67211"
     inkscape:cy="557.45289"
     inkscape:document-units="px"
     inkscape:current-layer="layer1"
     showgrid="false"
     inkscape:window-width="1366"
     inkscape:window-height="721"
     inkscape:window-x="0"
     inkscape:window-y="0"
     inkscape:window-maximized="1"
     showguides="true"
     inkscape:guide-bbox="true" />
  <metadata
     id="metadata7">
    <rdf:RDF>
      <cc:Work
         rdf:about="">
        <dc:format>image/svg+xml</dc:format>
        <dc:type
           rdf:resource="http://purl.org/dc/dcmitype/StillImage" />
        <dc:title />
      </cc:Work>
    </rdf:RDF>
  </metadata>
  <g
     inkscape:label="1. réteg"
     inkscape:groupmode="layer"
     id="layer1">
    <g
       style="fill:#ff0000"
       transform="translate(-111.45456,0)"
       id="g3827" />
    <g
       id="g3794"
       transform="translate(-9.4589206,-130.34573)">
      <g
         id="g3790">
        <path
           style="fill:#1243a6;fill-opacity:1;stroke:#000000;stroke-width:0;stroke-linecap:butt;stroke-linejoin:miter;stroke-miterlimit:4;stroke-opacity:1;stroke-dasharray:none"
           d="M 235.65479,531.63588 410.04767,347.71132 521.50929,465.51656 c 0,0 -48.97393,-0.33782 -176.59947,32.73059 -44.44164,11.51504 -109.25503,33.38873 -109.25503,33.38873 z"
           id="path3015"
           inkscape:connector-curvature="0"
           sodipodi:nodetypes="cccsc" />
        <g
           id="g3787">
          <path
             sodipodi:nodetypes="csccccsscssssc"
             inkscape:connector-curvature="0"
             id="path3785"
             d="m 38.62277,614.92016 c 0,0 61.257117,-22.44645 92.1403,-32.93925 27.46806,-9.33249 82.83651,-26.69117 82.83651,-26.69117 l -35.23023,36.79601 462.9837,0 -86.86838,-91.9248 c 0,0 28.77188,3.03635 50.24094,7.74468 21.23582,4.65718 31.17609,8.62189 40.11018,13.39754 53.35018,28.51791 31.91083,71.30451 31.91083,71.30451 0,0 15.68595,-11.39804 17.05057,-37.79757 0.84378,-16.3236 -7.07656,-31.40083 -22.22108,-43.71235 -23.89123,-19.42204 -57.29776,-24.62452 -87.82962,-28.60097 -54.98632,-7.16138 -111.35821,0.39637 -166.09329,9.27622 C 210.17434,525.433 38.62277,614.92016 38.62277,614.92016 z"
             style="fill:#1243a6;fill-opacity:1;stroke:#000000;stroke-width:0;stroke-linecap:butt;stroke-linejoin:miter;stroke-miterlimit:4;stroke-opacity:1;stroke-dasharray:none" />
        </g>
      </g>
      <g
         style="fill:#1243a6;fill-opacity:1"
         id="g3777">
        <path
           style="fill:#1243a6;fill-opacity:1;fill-rule:nonzero;stroke:#ebebeb;stroke-width:0;stroke-miterlimit:4;stroke-opacity:1;stroke-dasharray:none"
           d="m 489.03125,615.09375 0,6.96875 c 0,0 4.40877,-0.82228 6.875,-0.9375 2.19102,-0.10236 6.88971,-0.0646 7.15625,-0.0625 l 0,47 11.53125,0 0,-47 c 1.05348,-0.007 4.58149,-0.0286 6.53125,0.0625 2.46623,0.11522 6.90625,0.92713 6.90625,0.92713 l 0,-6.95838 -13.4375,0 -11.46875,0 -0.0625,0 z"
           id="rect3833"
           inkscape:connector-curvature="0"
           sodipodi:nodetypes="ccsccccscccccc" />
        <path
           style="fill:#1243a6;fill-opacity:1;stroke:#000000;stroke-width:0;stroke-linecap:butt;stroke-linejoin:miter;stroke-miterlimit:4;stroke-opacity:1;stroke-dasharray:none"
           d="m 235.60334,668.0614 21.44189,-52.96368 6.96275,0 20.51468,52.96368 -13.50522,0 -13.52833,-37.95827 -14.47092,37.95827 z"
           id="path3840"
           inkscape:connector-curvature="0"
           sodipodi:nodetypes="cccccccc" />
        <path
           style="fill:#1243a6;fill-opacity:1;stroke:#000000;stroke-width:0;stroke-linecap:butt;stroke-linejoin:miter;stroke-miterlimit:4;stroke-opacity:1;stroke-dasharray:none"
           d="m 590.0625,615.09375 -21.4375,52.96875 7.40625,0 5.96875,-15.625 16.46875,0 5.5625,15.625 13.5,0 -20.5,-52.96875 -6.96875,0 z m 0.4375,15 6.1875,17.375 -12.8125,0 6.625,-17.375 z"
           id="path3842"
           inkscape:connector-curvature="0" />
        <path
           style="fill:#1243a6;fill-opacity:1;fill-rule:nonzero;stroke:#ebebeb;stroke-width:0;stroke-miterlimit:4;stroke-opacity:1;stroke-dasharray:none"
           d="m 350.53125,614.0625 c -16.31614,0 -29.53125,12.08858 -29.53125,27 0,14.91142 13.21511,27 29.53125,27 16.31614,0 29.5625,-12.08858 29.5625,-27 0,-14.91142 -13.24636,-27 -29.5625,-27 z m -0.5625,4 c 9.3872,0 17.03625,10.27827 17.0625,22.96875 C 367.0575,653.72173 359.4497,664 350.0625,664 c -9.3872,0 -17.005,-10.27827 -17.03125,-22.96875 -0.0263,-12.69048 7.5503,-22.96875 16.9375,-22.96875 z"
           id="path2995"
           inkscape:connector-curvature="0" />
        <path
           style="fill:#1243a6;fill-opacity:1;fill-rule:nonzero;stroke:#ebebeb;stroke-width:0;stroke-miterlimit:4;stroke-opacity:1;stroke-dasharray:none"
           d="m 415.5625,614.0625 c -16.31614,0 -29.53125,12.08858 -29.53125,27 0,14.91142 13.21511,27 29.53125,27 5.29448,0 10.2622,-1.27083 14.5625,-3.5 l 0.4375,-6.53125 c -1.11005,0.69548 -3.63439,2.21781 -6.625,3.59375 -2.45713,1.13048 -4.45803,1.72793 -5.84375,2.03125 -0.0427,0.0103 -0.0822,0.0214 -0.125,0.0312 -0.37543,0.0864 -0.77284,0.13491 -1.15625,0.1875 -0.51677,0.0706 -0.875,0.0937 -0.875,0.0937 -0.27949,0.0185 -0.56086,0.0312 -0.84375,0.0312 -9.3872,0 -17.005,-10.27827 -17.03125,-22.96875 -0.0263,-12.69048 7.5503,-22.96875 16.9375,-22.96875 3.02095,0 5.84771,1.07072 8.3125,2.9375 l 0,-0.0312 c 0,0 2.48965,1.55225 3.46875,2.28125 1.5988,1.19042 2.862,2.34159 3.75,3.1875 l 1.78125,-7.59375 c -4.76304,-2.99841 -10.53209,-4.78125 -16.75,-4.78125 z"
           id="path3768"
           inkscape:connector-curvature="0" />
        <path
           id="path3778"
           d="m 463.73666,614.0625 c -16.31614,0 -29.53125,12.08858 -29.53125,27 0,14.91142 13.21511,27 29.53125,27 5.29448,0 10.2622,-1.27083 14.5625,-3.5 l 0.4375,-6.53125 c -1.11005,0.69548 -3.63439,2.21781 -6.625,3.59375 -2.45713,1.13048 -4.45803,1.72793 -5.84375,2.03125 -0.0427,0.0103 -0.0822,0.0214 -0.125,0.0312 -0.37543,0.0864 -0.77284,0.13491 -1.15625,0.1875 -0.51677,0.0706 -0.875,0.0937 -0.875,0.0937 -0.27949,0.0185 -0.56086,0.0312 -0.84375,0.0312 -9.3872,0 -17.005,-10.27827 -17.03125,-22.96875 -0.0263,-12.69048 7.5503,-22.96875 16.9375,-22.96875 3.02095,0 5.84771,1.07072 8.3125,2.9375 l 0,-0.0312 c 0,0 2.48965,1.55225 3.46875,2.28125 1.5988,1.19042 2.862,2.34159 3.75,3.1875 l 1.78125,-7.59375 c -4.76304,-2.99841 -10.53209,-4.78125 -16.75,-4.78125 z"
           style="fill:#1243a6;fill-opacity:1;fill-rule:nonzero;stroke:#ebebeb;stroke-width:0;stroke-miterlimit:4;stroke-opacity:1;stroke-dasharray:none"
           inkscape:connector-curvature="0" />
        <g
           style="fill:#1243a6;fill-opacity:1"
           id="g3796">
          <path
             style="fill:#1243a6;fill-opacity:1;fill-rule:nonzero;stroke:#ebebeb;stroke-width:0;stroke-miterlimit:4;stroke-opacity:1;stroke-dasharray:none"
             d="m 202.46875,615.09375 0,52.96875 9.28125,0 2.28125,0 18,0 0,-6.96875 c 0,0 -5.47327,1.0845 -18,1.03125 l 0,-19.0625 c 12.59115,0.0143 18,0.59375 18,0.59375 l 0,-6.59375 c 0,0 -5.50226,0.42615 -18,0.4375 l 0,-16.46875 c 12.52673,-0.0533 18,1.03125 18,1.03125 l 0,-6.96875 -18,0 -11.5625,0 z"
             id="rect3782"
             inkscape:connector-curvature="0" />
        </g>
        <g
           id="g3800"
           transform="translate(88.545436,0)"
           style="fill:#1243a6;fill-opacity:1">
          <path
             style="fill:#1243a6;fill-opacity:1;fill-rule:nonzero;stroke:#ebebeb;stroke-width:0;stroke-miterlimit:4;stroke-opacity:1;stroke-dasharray:none"
             d="m 291.03125,615.09375 0,52.96875 11.53125,0 0,-47.03125 c 12.55033,-0.0553 18,1.03125 18,1.03125 l 0,-6.96875 -18,0 -2.25,0 -9.28125,0 z"
             transform="translate(-88.545436,0)"
             id="rect3802"
             inkscape:connector-curvature="0" />
        </g>
        <path
           style="fill:#1243a6;fill-opacity:1;fill-rule:nonzero;stroke:#ebebeb;stroke-width:0;stroke-miterlimit:4;stroke-opacity:1;stroke-dasharray:none"
           d="m 535.53125,615.09375 0,52.96875 11.90625,0 0,-22.96875 c 2.88919,0.0771 11.92081,0.0684 17.34375,-3.0625 4.23964,-2.44775 6.2259,-7.6401 6.3125,-13.40625 0.0866,-5.76616 -1.27831,-7.33725 -4.28125,-10.15625 -2.7876,-3.29345 -10.40674,-3.37417 -19.375,-3.375 l -1.09375,0 -10.8125,0 z m 11.90625,4.46875 5.53125,0 c 3.76196,0 6.574,5.07589 6.5625,10.15625 -0.0104,4.57586 -4.50957,11.375 -8.625,11.375 l -3.46875,0 0,-21.53125 z"
           id="rect3814"
           inkscape:connector-curvature="0" />
        <path
           style="fill:#1243a6;fill-opacity:1;fill-rule:nonzero;stroke:#ebebeb;stroke-width:0;stroke-miterlimit:4;stroke-opacity:1;stroke-dasharray:none"
           d="m 158.40625,615.09375 0,52.96875 11.65625,0 0.25,0 c 0.71952,0.0373 12.11976,0.58022 18.375,-3.03125 4.23964,-2.44775 6.2259,-7.6401 6.3125,-13.40625 0.0866,-5.76616 -1.27831,-7.33725 -4.28125,-10.15625 -2.89557,-3.42101 -10.98594,-3.37537 -20.40625,-3.375 l 0,-17.0625 4.96875,0 1.9375,0 c 10.93179,0.0744 15.8125,1.03125 15.8125,1.03125 l 0,-6.96875 -15.8125,0 -1.9375,0 -4.96875,0 -1.59375,0 -10.3125,0 z m 11.90625,27.46875 6.59375,0 c 3.76196,0 6.574,5.07589 6.5625,10.15625 -0.0104,4.57586 -4.54082,11.375 -8.65625,11.375 l -4.5,0 0,-21.53125 z"
           id="rect3821"
           inkscape:connector-curvature="0" />
        <rect
           style="fill:#1243a6;fill-opacity:1;fill-rule:nonzero;stroke:#ebebeb;stroke-width:0;stroke-miterlimit:4;stroke-opacity:1;stroke-dasharray:none"
           id="rect3003"
           width="13.4465"
           height="60.377266"
           x="283.63129"
           y="701.19592"
           transform="matrix(1,0,0.48010266,0.87721231,0,0)" />
        <path
           style="fill:#1243a6;fill-opacity:1;stroke:#000000;stroke-width:0;stroke-linecap:butt;stroke-linejoin:miter;stroke-miterlimit:4;stroke-opacity:1;stroke-dasharray:none"
           d="m 620.00556,668.0614 6.98812,0 14.07938,-22.45081 -4.50119,-2.6834 z"
           id="path3005"
           inkscape:connector-curvature="0" />
        <path
           inkscape:connector-curvature="0"
           id="path3775"
           d="m 662.34572,615.14371 -6.98812,0 -14.07938,22.45081 4.50119,2.6834 z"
           style="fill:#1243a6;fill-opacity:1;stroke:#000000;stroke-width:0;stroke-linecap:butt;stroke-linejoin:miter;stroke-miterlimit:4;stroke-opacity:1;stroke-dasharray:none" />
      </g>
    </g>
  </g>
</svg>
