<svg width="76" height="34" viewBox="0 0 76 34" fill="none" xmlns="http://www.w3.org/2000/svg">
<path fill-rule="evenodd" clip-rule="evenodd" d="M23.2728 18.9559L41.1842 0L52.8389 12.3344C48.3781 12.8452 40.0735 14.1415 33.4841 16.0315L23.2728 18.9559ZM22.0612 20.2382L22.0588 20.2407C14.9473 22.6407 4.35847 26.4701 2 28.3206C6.15383 26.711 15.5833 23.1997 20.5444 21.8434L16.7668 25.8413H65.6016L56.4025 16.1058C62.1601 16.3772 72.0988 18.7362 69.2402 25.842C70.2773 24.7169 71.8876 21.6968 70.0312 18.617C68.7128 16.7008 63.0804 13.1534 51.0985 14.2925C50.4292 14.346 49.6996 14.4145 48.9168 14.4984C48.117 14.5806 47.217 14.6845 46.1938 14.8185C44.9659 14.9794 43.6632 15.1743 42.3154 15.3973C37.2246 16.2203 31.2083 17.4682 25.2044 19.1971C24.5892 19.3972 23.9106 19.6207 23.1836 19.8633C22.7972 19.9883 22.4226 20.1134 22.0612 20.2382ZM33.7647 33.6715C34.2025 33.8904 34.7162 33.9998 35.3059 33.9998C35.772 33.9998 36.2007 33.9239 36.5921 33.772C36.9861 33.62 37.317 33.4153 37.5848 33.1578C37.8552 32.8977 38.0625 32.5939 38.2067 32.2462C38.3509 31.896 38.423 31.5278 38.423 31.1415C38.423 30.969 38.4101 30.8042 38.3844 30.6471C38.3586 30.4875 38.32 30.3226 38.2685 30.1527C38.1655 29.8205 38.002 29.5192 37.778 29.2488C37.5565 28.9759 37.2539 28.7544 36.8702 28.5845C36.4866 28.4119 36.0282 28.3257 35.4952 28.3257C35.011 28.3257 34.5759 28.3991 34.1896 28.5459C33.8059 28.6901 33.4763 28.8948 33.2008 29.16C32.9278 29.4227 32.7218 29.7252 32.5828 30.0677C32.4463 30.4102 32.378 30.7784 32.378 31.1724C32.378 31.7621 32.4991 32.2707 32.7411 32.6982C32.9857 33.1256 33.3269 33.4501 33.7647 33.6715ZM33.8613 32.4355C33.748 32.1162 33.6913 31.7724 33.6913 31.4042C33.6913 30.8248 33.7608 30.3394 33.8999 29.948C34.0415 29.554 34.2398 29.2669 34.4947 29.0866C34.7625 28.8961 35.078 28.8008 35.4411 28.8008C35.7218 28.8008 35.9703 28.8639 36.1866 28.9901C36.4029 29.1162 36.5793 29.2862 36.7157 29.4999C36.8522 29.7136 36.9514 29.9493 37.0132 30.2068C37.0775 30.4617 37.1097 30.7231 37.1097 30.9909C37.1097 31.4441 37.0441 31.8651 36.9127 32.2539C36.7814 32.6402 36.5818 32.9492 36.314 33.181C36.0488 33.4102 35.7256 33.5247 35.3445 33.5247C34.9686 33.5247 34.6557 33.423 34.4059 33.2196C34.1587 33.0136 33.9771 32.7522 33.8613 32.4355ZM25.5316 28.4918H25.4544L25.2613 28.4763L25.1222 28.4609L24.8634 29.1677L24.6008 29.8475L24.0754 31.157L23.5308 32.4432L22.9167 33.8801C23.0403 33.8647 23.1613 33.8569 23.2798 33.8569C23.4034 33.8569 23.527 33.8647 23.6506 33.8801C23.9879 32.8321 24.4784 31.5265 25.1222 29.9634L25.5355 31.0759L25.9179 32.084C25.9746 32.2308 26.0209 32.3557 26.057 32.4587C26.111 32.6209 26.1664 32.7818 26.2231 32.9415C26.3389 33.2737 26.4394 33.5865 26.5243 33.8801L26.7831 33.8608L26.9106 33.8453L27.0226 33.8415L27.2196 33.8338L27.4166 33.8415L27.6522 33.8569L27.9149 33.8801L27.293 32.3467L26.7947 31.0874L26.2694 29.7317L26.0454 29.1368L25.7943 28.4609L25.7055 28.4725L25.6244 28.4802L25.5316 28.4918ZM15.7883 29.0403V30.8016H16.6265C16.9947 30.8016 17.3076 30.8505 17.5651 30.9484C17.8226 31.0462 18.0183 31.1956 18.1522 31.3965C18.2887 31.5947 18.3569 31.8419 18.3569 32.1381C18.3569 33.284 17.6617 33.8569 16.2711 33.8569H14.5986V28.4686H18.0982L18.0672 28.6386L18.0557 28.8085C18.0557 28.8549 18.0569 28.9025 18.0595 28.9514C18.0647 28.9978 18.0775 29.0634 18.0982 29.1484C17.82 29.1124 17.4943 29.0853 17.1209 29.0673C16.7501 29.0493 16.3059 29.0403 15.7883 29.0403ZM15.7883 33.4127L16.1398 33.4011C16.1862 33.4011 16.2261 33.3986 16.2596 33.3934C16.2956 33.3857 16.3381 33.3741 16.387 33.3587C16.6316 33.2891 16.8171 33.1552 16.9432 32.9569C17.0694 32.7587 17.1325 32.5333 17.1325 32.281C17.1325 31.9823 17.0552 31.7338 16.9007 31.5355C16.7488 31.3372 16.5673 31.2381 16.3561 31.2381H15.7883V33.4127ZM22.3788 28.8085C22.3788 28.8574 22.3917 28.9707 22.4175 29.1484C22.1342 29.1124 21.8458 29.0853 21.5522 29.0673C21.2587 29.0493 20.9355 29.0403 20.5827 29.0403V30.7475H21.4132C21.6552 30.7475 21.9797 30.7231 22.3866 30.6741C22.3788 30.7256 22.3698 30.7836 22.3595 30.848C22.3518 30.9098 22.3479 30.9626 22.3479 31.0063C22.3479 31.0733 22.3608 31.1879 22.3866 31.3501C22.0647 31.3063 21.7402 31.2844 21.4132 31.2844H20.5827V33.2853C21.2677 33.2853 21.8793 33.2492 22.4175 33.1771L22.3788 33.517L22.4175 33.8569H19.3969V28.4686H22.4175L22.3788 28.8085ZM29.9746 33.8878L29.3875 33.8569L28.7849 33.8878V28.4686H31.8093L31.7668 28.8085L31.8093 29.1484L31.3651 29.0943C31.2853 29.0866 31.2119 29.0802 31.1449 29.075C31.0806 29.0699 31.0175 29.0673 30.9557 29.0673L30.4574 29.0557L29.9746 29.0403V33.8878ZM43.65 32.9763L43.4762 33.6599C43.0307 33.8865 42.5093 33.9998 41.9119 33.9998C41.4947 33.9998 41.102 33.9368 40.7338 33.8106C40.3655 33.6844 40.0488 33.5054 39.7836 33.2737C39.5209 33.0393 39.3136 32.7548 39.1617 32.42C39.0098 32.0827 38.9338 31.7196 38.9338 31.3308C38.9338 30.8338 39.0149 30.3948 39.1771 30.0136C39.3394 29.63 39.5634 29.3145 39.8492 29.0673C40.1376 28.8175 40.4724 28.6321 40.8535 28.5111C41.2372 28.3875 41.6479 28.3257 42.0857 28.3257C42.2247 28.3257 42.3625 28.3334 42.499 28.3489C42.6355 28.3643 42.7784 28.3901 42.9277 28.4261C43.2187 28.4905 43.4749 28.5871 43.6964 28.7158L43.5998 29.1368L43.5573 29.3531C43.5548 29.3737 43.5496 29.4008 43.5419 29.4342C43.5342 29.4677 43.5251 29.4986 43.5148 29.527H43.4067C43.2522 29.3081 43.0578 29.133 42.8234 29.0016C42.6973 28.9347 42.5737 28.8845 42.4526 28.851C42.3316 28.8175 42.2119 28.8008 42.0934 28.8008C41.7767 28.8008 41.5011 28.869 41.2668 29.0055C41.0325 29.1394 40.8381 29.3261 40.6836 29.5656C40.5393 29.7948 40.4299 30.0536 40.3552 30.342C40.3192 30.4913 40.2921 30.6355 40.2741 30.7746C40.2664 30.8467 40.26 30.9188 40.2548 30.9909C40.2497 31.063 40.2471 31.1402 40.2471 31.2226C40.2471 31.6681 40.3205 32.0673 40.4672 32.42C40.614 32.7703 40.829 33.0419 41.1123 33.2351C41.3956 33.4282 41.7355 33.5247 42.132 33.5247C42.3715 33.5247 42.62 33.4707 42.8775 33.3625C43.1376 33.2518 43.3603 33.1076 43.5457 32.9299L43.65 32.9763ZM48.7921 33.6599L48.9659 32.9763L48.8616 32.9299C48.6762 33.1076 48.4535 33.2518 48.1934 33.3625C47.9359 33.4707 47.6874 33.5247 47.4479 33.5247C47.0513 33.5247 46.7114 33.4282 46.4282 33.2351C46.1449 33.0419 45.9299 32.7703 45.7831 32.42C45.6363 32.0673 45.5629 31.6681 45.5629 31.2226C45.5629 31.1402 45.5655 31.063 45.5707 30.9909C45.5758 30.9188 45.5823 30.8467 45.59 30.7746C45.608 30.6355 45.635 30.4913 45.6711 30.342C45.7458 30.0536 45.8552 29.7948 45.9994 29.5656C46.1539 29.3261 46.3483 29.1394 46.5827 29.0055C46.817 28.869 47.0925 28.8008 47.4093 28.8008C47.5277 28.8008 47.6475 28.8175 47.7685 28.851C47.8895 28.8845 48.0131 28.9347 48.1393 29.0016C48.3736 29.133 48.5681 29.3081 48.7226 29.527H48.8307C48.841 29.4986 48.85 29.4677 48.8577 29.4342C48.8655 29.4008 48.8706 29.3737 48.8732 29.3531L48.9157 29.1368L49.0122 28.7158C48.7908 28.5871 48.5346 28.4905 48.2436 28.4261C48.0942 28.3901 47.9513 28.3643 47.8148 28.3489C47.6784 28.3334 47.5406 28.3257 47.4015 28.3257C46.9638 28.3257 46.5531 28.3875 46.1694 28.5111C45.7883 28.6321 45.4535 28.8175 45.1651 29.0673C44.8793 29.3145 44.6552 29.63 44.493 30.0136C44.3308 30.3948 44.2497 30.8338 44.2497 31.3308C44.2497 31.7196 44.3256 32.0827 44.4776 32.42C44.6295 32.7548 44.8368 33.0393 45.0994 33.2737C45.3647 33.5054 45.6814 33.6844 46.0496 33.8106C46.4179 33.9368 46.8106 33.9998 47.2277 33.9998C47.8251 33.9998 48.3466 33.8865 48.7921 33.6599ZM52.1766 33.8878L51.5857 33.8569L50.9908 33.8878V29.0287C50.7797 29.0287 50.5518 29.0377 50.3071 29.0557C50.0625 29.0737 49.7999 29.1021 49.5192 29.1407L49.5578 28.8008C49.5578 28.7519 49.5449 28.6411 49.5192 28.4686H53.5942L53.571 28.5961L53.5517 28.7081L53.5479 28.8008L53.5517 28.9012L53.571 29.0171L53.5942 29.1407C52.9505 29.066 52.4779 29.0287 52.1766 29.0287V33.8878ZM55.3719 33.8724L55.6732 33.8878V31.5239C56.1676 31.5239 56.6003 31.475 56.9711 31.3771C57.3419 31.2793 57.6264 31.1029 57.8247 30.848C58.023 30.593 58.1221 30.2454 58.1221 29.8051C58.1221 29.3647 57.9766 29.0325 57.6856 28.8085C57.3947 28.5819 56.9762 28.4686 56.4303 28.4686H54.4835V33.8878L54.781 33.8724L54.92 33.8569H55.0784L55.3719 33.8724ZM55.9629 31.0681L55.6732 31.0797V28.9051H56.1638C56.3724 28.9051 56.5462 29.0016 56.6852 29.1948C56.8269 29.3853 56.8977 29.6364 56.8977 29.948C56.8977 30.2132 56.8397 30.4437 56.7239 30.6394C56.6106 30.8351 56.4342 30.9638 56.1947 31.0256C56.1561 31.0359 56.1174 31.045 56.0788 31.0527L55.9629 31.0681ZM59.6565 32.2424L59.4595 32.7947L59.2471 33.4089L59.1003 33.8801L58.9226 33.8685L58.7295 33.8569L58.5441 33.8685L58.3509 33.8801L60.6144 28.3991C60.7148 28.4145 60.814 28.4222 60.9118 28.4222C61.0045 28.4222 61.105 28.4145 61.2131 28.3991L63.4225 33.8878L62.7311 33.8569L62.3912 33.8724L62.059 33.8878L61.8389 33.1964L61.6535 32.6479C61.602 32.496 61.5505 32.3608 61.499 32.2424H59.6565ZM61.3174 31.7595L60.6144 29.9171L59.8689 31.7595H61.3174ZM66.5135 30.8518L67.4328 29.5463L68.1976 28.4686C68.0663 28.4841 67.9376 28.4918 67.8114 28.4918C67.6775 28.4918 67.5487 28.4841 67.4251 28.4686L67.0543 29.048L66.7762 29.4999L66.2277 30.3845L65.544 29.0828L65.2466 28.4686L64.984 28.4918L64.7483 28.5072L64.5436 28.515L64.3389 28.5072L64.0994 28.4918L63.8406 28.4686L65.4629 31.381L65.1925 31.7943L64.9299 32.1883L64.6711 32.5707L64.3968 32.9685L64.0917 33.4089L63.7595 33.8801L63.9526 33.8685L64.1496 33.8569L64.5436 33.8801C64.6955 33.5788 64.8591 33.2917 65.0342 33.0187L65.7642 31.8793L66.8071 33.8878L67.1509 33.8724L67.4869 33.8569L67.8268 33.8724L68.1745 33.8878L67.8191 33.2042L67.3054 32.2578L66.6256 31.0334L66.5135 30.8518Z" fill="#002D72"/>
</svg>
